<?xml version="1.0" encoding="utf-8"?>
<!-- Generator: Adobe Illustrator 28.0.0, SVG Export Plug-In . SVG Version: 6.00 Build 0)  -->
<svg version="1.1" id="Layer_1" xmlns="http://www.w3.org/2000/svg" xmlns:xlink="http://www.w3.org/1999/xlink" x="0px" y="0px"
	 viewBox="0 0 243 64" style="enable-background:new 0 0 243 64;" xml:space="preserve">
<style type="text/css">
	.st0{fill:#A71636;}
</style>
<g>
	<g>
		<g>
			<path d="M3.2,48.9v5.3h3.6v-5.3h1.3v12.2H6.8v-5.8H3.2v5.8H1.9V48.9H3.2z"/>
		</g>
		<g>
			<path d="M12.4,56.9v0.5c0,2.2,0.5,2.8,1.7,2.8c0.9,0,1.3-0.8,1.5-1.7l1.2,0.2c-0.2,1.3-1.2,2.5-2.8,2.5c-1.8,0-2.7-1.4-2.7-4.6
				c0-3.2,0.8-4.6,2.7-4.6s2.7,1.7,2.7,4.2v0.6H12.4z M15.3,55.9c0-1.9-0.4-2.7-1.5-2.7c-0.9,0-1.5,0.7-1.5,2.7H15.3z"/>
		</g>
		<g>
			<path d="M19.7,48.9H21v12.2h-1.2V48.9z"/>
		</g>
		<g>
			<path d="M25.9,53.2L25.9,53.2c0.4-0.6,1-1,1.8-1c1.4,0,2.5,1.2,2.5,4.6c0,3.4-1.2,4.6-2.5,4.6c-0.7,0-1.2-0.4-1.6-0.8V64h-1.2
				V52.4h1L25.9,53.2L25.9,53.2z M26.1,59.5c0.3,0.3,0.8,0.8,1.3,0.8c1,0,1.6-0.8,1.6-3.5s-0.7-3.5-1.7-3.5c-0.4,0-0.9,0.3-1.3,0.8
				L26.1,59.5L26.1,59.5z"/>
		</g>
		<g>
			<path d="M33.7,48.9H35v1.4h-1.2V48.9z M33.7,52.3H35v8.8h-1.2V52.3z"/>
		</g>
		<g>
			<path d="M38.8,52.3h1.2v1c0.6-0.6,1.4-1.1,2-1.1c1.2,0,1.9,0.7,1.9,2.3v6.6h-1.2v-6.5c0-1-0.3-1.5-1-1.5c-0.6,0-1.1,0.4-1.7,1.1
				v6.9h-1.2L38.8,52.3L38.8,52.3z"/>
		</g>
		<g>
			<path d="M53.3,53.2c-0.2,0-0.2,0-0.3,0c-0.3,0-0.5,0.2-0.8,0.3c0.2,0.5,0.3,1,0.3,1.7c0,2.2-1,3.2-2.4,3.2
				c-0.3,0-0.5-0.1-0.8-0.1c-0.2,0-0.6,0.2-0.6,0.6c0,0.6,1,0.7,2.1,0.9c1.3,0.3,2.4,0.7,2.4,2.1c0,1.2-1.1,2.1-3,2.1
				c-2,0-3-0.7-3-1.9c0-0.8,0.5-1.4,1.3-1.8c-0.5-0.2-1-0.6-1-1.2c0-0.7,0.6-1.1,1.2-1.2c-0.7-0.5-1-1.6-1-2.5c0-2.1,1-3.3,2.5-3.3
				c0.6,0,1.3,0.3,1.6,0.8c0.3-0.5,0.7-0.8,1.5-0.8L53.3,53.2L53.3,53.2z M49.5,60.6c-0.7,0.3-1.2,0.7-1.2,1.2
				c0,0.7,0.6,1.2,1.9,1.2c1.3,0,1.8-0.5,1.8-1.3C52.1,61,50.5,60.8,49.5,60.6z M50,57.5c0.7,0,1.3-0.5,1.3-2.2S50.7,53,50,53
				s-1.3,0.5-1.3,2.2S49.3,57.5,50,57.5z"/>
		</g>
		<g>
			<path d="M62.8,48.9v5.3h3.6v-5.3h1.3v12.2h-1.3v-5.8h-3.6v5.8h-1.3V48.9H62.8z"/>
		</g>
		<g>
			<path d="M71.9,56.9v0.5c0,2.2,0.5,2.8,1.7,2.8c0.9,0,1.3-0.8,1.5-1.7l1.2,0.2C76,60,75,61.3,73.4,61.3c-1.8,0-2.7-1.4-2.7-4.6
				c0-3.2,0.8-4.6,2.7-4.6s2.7,1.7,2.7,4.2v0.6H71.9z M74.9,55.9c0-1.9-0.4-2.7-1.5-2.7c-0.9,0-1.5,0.7-1.5,2.7H74.9z"/>
		</g>
		<g>
			<path d="M79.2,52.3h1.2v1.1h0c0.7-1.1,1.3-1.2,2.2-1.2v1.2c-0.9,0-1.6,0.3-2.3,1.5v6.3h-1.2V52.3z"/>
		</g>
		<g>
			<path d="M87.4,52.1c1.8,0,2.7,1.4,2.7,4.6c0,3.2-0.8,4.6-2.7,4.6s-2.7-1.4-2.7-4.6C84.7,53.5,85.5,52.1,87.4,52.1z M87.4,60.2
				c1,0,1.5-0.7,1.5-3.5c0-2.9-0.4-3.5-1.5-3.5c-1,0-1.5,0.7-1.5,3.5C85.9,59.6,86.3,60.2,87.4,60.2z"/>
		</g>
		<g>
			<path d="M93.8,56.9v0.5c0,2.2,0.5,2.8,1.7,2.8c0.9,0,1.3-0.8,1.5-1.7l1.2,0.2c-0.2,1.3-1.2,2.5-2.8,2.5c-1.8,0-2.7-1.4-2.7-4.6
				c0-3.2,0.8-4.6,2.7-4.6s2.7,1.7,2.7,4.2v0.6H93.8z M96.8,55.9c0-1.9-0.4-2.7-1.5-2.7c-0.9,0-1.5,0.7-1.5,2.7H96.8z"/>
		</g>
		<g>
			<path d="M104.6,54.5c-0.2-0.8-0.5-1.4-1.5-1.4c-0.6,0-1,0.5-1,1c0,1.8,3.7,1.9,3.7,4.6c0,1.4-1,2.4-2.4,2.4
				c-1.6,0-2.4-0.8-2.8-2.3l1.1-0.2c0.3,0.8,0.7,1.5,1.6,1.5c0.7,0,1.3-0.6,1.3-1.3c0-2-3.7-2.1-3.7-4.6c0-1.2,1-2.1,2.3-2.1
				c1.3,0,2.2,0.8,2.5,2.1L104.6,54.5z"/>
		</g>
		<g>
			<path d="M118.5,52.1c-0.1-1.3-0.6-2.2-1.9-2.2c-1,0-1.7,0.7-1.7,1.6c0,2.8,4.9,2.8,4.9,6.7c0,2-1.1,3.1-3.1,3.1
				c-1.9,0-3.1-1.4-3.1-3.5h1.2c0,1.4,0.7,2.3,2,2.3c1.1,0,1.8-0.7,1.8-2c0-2.8-4.9-3.1-4.9-6.6c0-1.7,1.2-2.8,3-2.8
				c1.8,0,2.9,1.2,3,3.3L118.5,52.1L118.5,52.1z"/>
		</g>
		<g>
			<path d="M122.9,54.7c0.2-1.4,1-2.6,2.6-2.6c1.6,0,2.5,1,2.5,2.5v4.9c0,0.8,0.1,1.3,0.2,1.5H127l-0.2-0.7
				c-0.5,0.5-1.3,0.9-1.9,0.9c-1.4,0-2.3-0.9-2.3-2.3c0-2.2,2.4-3.3,4.1-3.6v-0.6c0-1-0.5-1.6-1.3-1.6c-0.9,0-1.4,0.9-1.5,1.7
				L122.9,54.7z M126.8,56.4c-1.1,0.3-2.9,1.2-2.9,2.5c0,0.8,0.4,1.3,1.3,1.3c0.7,0,1.2-0.5,1.7-0.9L126.8,56.4L126.8,56.4z"/>
		</g>
		<g>
			<path d="M132.2,52.3l1.8,7.6h0l1.7-7.6h1.2l-2.2,8.8h-1.6l-2.2-8.8H132.2z"/>
		</g>
		<g>
			<path d="M140.4,56.9v0.5c0,2.2,0.5,2.8,1.7,2.8c0.9,0,1.3-0.8,1.5-1.7l1.2,0.2c-0.2,1.3-1.2,2.5-2.8,2.5c-1.8,0-2.7-1.4-2.7-4.6
				c0-3.2,0.8-4.6,2.7-4.6s2.7,1.7,2.7,4.2v0.6H140.4z M143.4,55.9c0-1.9-0.4-2.7-1.5-2.7c-0.9,0-1.5,0.7-1.5,2.7H143.4z"/>
		</g>
		<g>
			<path d="M154.1,48.9V60h4v1.1h-5.3V48.9L154.1,48.9L154.1,48.9z"/>
		</g>
		<g>
			<path d="M160.8,48.9h1.2v1.4h-1.2V48.9z M160.8,52.3h1.2v8.8h-1.2V52.3z"/>
		</g>
		<g>
			<path d="M166.2,52.3l1.8,7.6h0l1.7-7.6h1.2l-2.2,8.8h-1.6l-2.2-8.8H166.2z"/>
		</g>
		<g>
			<path d="M174.4,56.9v0.5c0,2.2,0.5,2.8,1.7,2.8c0.9,0,1.3-0.8,1.5-1.7l1.2,0.2c-0.2,1.3-1.2,2.5-2.8,2.5c-1.8,0-2.7-1.4-2.7-4.6
				c0-3.2,0.8-4.6,2.7-4.6s2.7,1.7,2.7,4.2v0.6H174.4z M177.3,55.9c0-1.9-0.4-2.7-1.5-2.7c-0.9,0-1.5,0.7-1.5,2.7H177.3z"/>
		</g>
		<g>
			<path d="M185.1,54.5c-0.2-0.8-0.5-1.4-1.5-1.4c-0.6,0-1,0.5-1,1c0,1.8,3.7,1.9,3.7,4.6c0,1.4-1,2.4-2.4,2.4
				c-1.6,0-2.4-0.8-2.8-2.3l1.1-0.2c0.3,0.8,0.7,1.5,1.6,1.5c0.7,0,1.3-0.6,1.3-1.3c0-2-3.7-2.1-3.7-4.6c0-1.2,1-2.1,2.3-2.1
				c1.3,0,2.2,0.8,2.5,2.1L185.1,54.5z"/>
		</g>
	</g>
	<g>
		<g>
			<path d="M10.7,0v26.1h5.1v6.5H2.2V0H10.7z"/>
		</g>
		<g>
			<path d="M27.1,0v4.3h-8.4V0H27.1z M27.1,5.9v26.7h-8.4V5.9H27.1z"/>
		</g>
		<g>
			<path d="M41.4,0v4.1c-1.7,0-2.7,0.1-3,0.2C38.1,4.5,38,5,38,5.7v0.8h3.4v4.2h-1.9v21.9h-8.1V10.8h-1.7V6.5h1.7
				c0-1.8,0.1-2.9,0.2-3.5c0.1-0.6,0.4-1.1,0.9-1.6s1.2-0.8,2-1.1c0.8-0.2,2.2-0.3,4-0.3C38.4,0,41.4,0,41.4,0z"/>
		</g>
		<g>
			<path d="M62.4,19.7H51.9v5.8c0,1.2,0.1,2,0.3,2.3c0.2,0.3,0.5,0.5,1,0.5c0.6,0,1-0.2,1.2-0.7s0.3-1.3,0.3-2.7v-3.5h7.7v2
				c0,1.7-0.1,2.9-0.3,3.8c-0.2,0.9-0.7,1.8-1.5,2.8c-0.8,1-1.7,1.8-2.9,2.3c-1.2,0.5-2.7,0.8-4.4,0.8c-1.7,0-3.2-0.2-4.6-0.7
				c-1.3-0.5-2.3-1.2-3.1-2c-0.7-0.9-1.2-1.8-1.5-2.9c-0.3-1-0.4-2.6-0.4-4.5v-7.8c0-2.3,0.3-4.2,1-5.5c0.6-1.3,1.7-2.4,3.1-3.1
				c1.4-0.7,3.1-1.1,5-1.1c2.3,0,4.2,0.4,5.6,1.3c1.5,0.9,2.5,2,3.1,3.5c0.6,1.4,0.9,3.5,0.9,6L62.4,19.7L62.4,19.7z M54.3,15.4v-2
				c0-1.4-0.1-2.3-0.2-2.7c-0.2-0.4-0.5-0.6-0.9-0.6c-0.6,0-0.9,0.2-1,0.5c-0.2,0.3-0.2,1.3-0.2,2.8v2L54.3,15.4L54.3,15.4z"/>
		</g>
		<g>
			<path d="M76.1,16.5v5.6H65.4v-5.6H76.1z"/>
		</g>
		<g>
			<path d="M94.2,0l4.8,32.6h-8.7l-0.5-5.9h-3l-0.5,5.9h-8.8L81.9,0H94.2z M89.7,21c-0.4-3.7-0.8-8.3-1.3-13.7
				C87.6,13.6,87,18.1,86.8,21H89.7z"/>
		</g>
		<g>
			<path d="M117.9,14.4h-7.2V13c0-1.2-0.1-2-0.2-2.3c-0.2-0.3-0.5-0.5-1.1-0.5c-0.5,0-0.8,0.2-1,0.5c-0.2,0.3-0.3,0.8-0.3,1.3
				c0,0.8,0,1.4,0.2,1.8s0.5,0.8,1,1.3c0.6,0.5,1.7,1.1,3.5,2c2.4,1.2,3.9,2.2,4.6,3.3s1.1,2.5,1.1,4.5c0,2.2-0.3,3.8-0.8,4.9
				c-0.6,1.1-1.5,2-2.8,2.6c-1.3,0.6-2.9,0.9-4.8,0.9c-2.1,0-3.8-0.3-5.3-1c-1.5-0.7-2.5-1.5-3-2.6c-0.5-1.1-0.8-2.8-0.8-5v-1.3h7.2
				v1.7c0,1.4,0.1,2.4,0.3,2.8s0.5,0.7,1.1,0.7c0.6,0,1-0.2,1.2-0.4c0.2-0.3,0.3-0.9,0.3-1.8c0-1.3-0.2-2.1-0.5-2.4
				c-0.3-0.3-1.9-1.3-4.7-2.8c-2.4-1.3-3.8-2.6-4.4-3.6c-0.5-1.1-0.8-2.4-0.8-3.9c0-2.2,0.3-3.7,0.8-4.7c0.6-1,1.5-1.8,2.9-2.3
				s2.9-0.8,4.7-0.8c1.8,0,3.3,0.2,4.5,0.7c1.2,0.5,2.2,1,2.9,1.8c0.7,0.7,1.1,1.4,1.2,2.1c0.2,0.6,0.2,1.6,0.2,3L117.9,14.4
				L117.9,14.4z"/>
		</g>
		<g>
			<path d="M138.4,14.4h-7.2V13c0-1.2-0.1-2-0.2-2.3c-0.2-0.3-0.5-0.5-1.1-0.5c-0.5,0-0.8,0.2-1,0.5c-0.2,0.3-0.3,0.8-0.3,1.3
				c0,0.8,0,1.4,0.2,1.8c0.1,0.4,0.5,0.8,1,1.3c0.6,0.5,1.7,1.1,3.5,2c2.4,1.2,3.9,2.2,4.6,3.3s1.1,2.5,1.1,4.5
				c0,2.2-0.3,3.8-0.8,4.9c-0.6,1.1-1.5,2-2.8,2.6c-1.3,0.6-2.9,0.9-4.8,0.9c-2.1,0-3.8-0.3-5.3-1s-2.5-1.5-3-2.6
				c-0.5-1.1-0.8-2.8-0.8-5v-1.3h7.2v1.7c0,1.4,0.1,2.4,0.3,2.8s0.5,0.7,1.1,0.7c0.6,0,1-0.2,1.2-0.4c0.2-0.3,0.3-0.9,0.3-1.8
				c0-1.3-0.2-2.1-0.5-2.4c-0.3-0.3-1.9-1.3-4.7-2.8c-2.4-1.3-3.8-2.6-4.4-3.6c-0.5-1.1-0.8-2.4-0.8-3.9c0-2.2,0.3-3.7,0.8-4.7
				c0.6-1,1.5-1.8,2.9-2.3c1.3-0.5,2.9-0.8,4.7-0.8c1.8,0,3.3,0.2,4.5,0.7c1.2,0.5,2.2,1,2.9,1.8c0.7,0.7,1.1,1.4,1.2,2.1
				c0.2,0.6,0.2,1.6,0.2,3L138.4,14.4L138.4,14.4z"/>
		</g>
		<g>
			<path d="M150.6,0v4.3h-8.4V0H150.6z M150.6,5.9v26.7h-8.4V5.9H150.6z"/>
		</g>
		<g>
			<path d="M171.2,14.4h-7.2V13c0-1.2-0.1-2-0.2-2.3c-0.2-0.3-0.5-0.5-1.1-0.5c-0.5,0-0.8,0.2-1,0.5c-0.2,0.3-0.3,0.8-0.3,1.3
				c0,0.8,0,1.4,0.2,1.8c0.1,0.4,0.5,0.8,1,1.3c0.6,0.5,1.7,1.1,3.5,2c2.4,1.2,3.9,2.2,4.6,3.3s1.1,2.5,1.1,4.5
				c0,2.2-0.3,3.8-0.8,4.9c-0.6,1.1-1.5,2-2.8,2.6c-1.3,0.6-2.9,0.9-4.8,0.9c-2.1,0-3.8-0.3-5.3-1c-1.5-0.7-2.5-1.5-3-2.6
				c-0.5-1.1-0.8-2.8-0.8-5v-1.3h7.2v1.7c0,1.4,0.1,2.4,0.3,2.8s0.5,0.7,1.1,0.7c0.6,0,1-0.2,1.2-0.4c0.2-0.3,0.3-0.9,0.3-1.8
				c0-1.3-0.2-2.1-0.5-2.4c-0.3-0.3-1.9-1.3-4.7-2.8c-2.4-1.3-3.8-2.6-4.4-3.6c-0.5-1.1-0.8-2.4-0.8-3.9c0-2.2,0.3-3.7,0.8-4.7
				c0.6-1,1.5-1.8,2.9-2.3c1.3-0.5,2.9-0.8,4.7-0.8s3.3,0.2,4.5,0.7c1.2,0.5,2.2,1,2.9,1.8c0.7,0.7,1.1,1.4,1.2,2.1
				c0.2,0.6,0.2,1.6,0.2,3L171.2,14.4L171.2,14.4z"/>
		</g>
		<g>
			<path d="M183.6,2.3v4.2h2.2v4.2h-2.2v14.3c0,1.8,0.1,2.7,0.3,3c0.2,0.2,0.9,0.3,2.3,0.3v4.3h-3.3c-1.8,0-3.2-0.1-4-0.2
				c-0.8-0.2-1.5-0.5-2.1-1.1c-0.6-0.6-1-1.2-1.1-1.9c-0.2-0.7-0.2-2.4-0.2-5.1V10.8h-1.8V6.5h1.8V2.3L183.6,2.3L183.6,2.3z"/>
		</g>
	</g>
	<g>
		<path class="st0" d="M216.5,62.4c-0.8,0-1.5-0.6-1.7-1.4l-9.1-45.6l-6.2,37.2c-0.1,0.7-0.7,1.3-1.5,1.4c-0.7,0.1-1.5-0.3-1.8-1
			l-5-10.5H1.8c-1,0-1.7-0.8-1.7-1.7s0.8-1.7,1.7-1.7h190.5c0.8,0,1.4,0.5,1.6,1.2l3,6.3l6.9-41c0.1-0.8,0.8-1.4,1.7-1.4
			c0.8,0,1.6,0.6,1.7,1.4l9.2,45.8l4.3-24.9c0.1-0.8,0.8-1.3,1.5-1.4c0.8-0.1,1.5,0.3,1.8,1.1l5.9,14.4h11.2c1,0,1.7,0.8,1.7,1.7
			s-0.8,1.7-1.7,1.7h-12.4c-0.7,0-1.3-0.4-1.6-1.1l-4.1-10L218.2,61C218.1,61.8,217.4,62.4,216.5,62.4
			C216.6,62.4,216.5,62.4,216.5,62.4z M192.3,40.8L192.3,40.8L192.3,40.8z"/>
	</g>
</g>
</svg>
